<svg width="536" height="454" viewBox="0 0 536 454" fill="none" xmlns="http://www.w3.org/2000/svg">
<rect x="35.2856" y="100.815" width="451.987" height="263.799" rx="50.4075" fill="url(#paint0_linear_457_8428)"/>
<g filter="url(#filter0_b_457_8428)">
<rect x="35.2856" y="100.815" width="451.431" height="263.799" rx="50.4075" fill="url(#paint1_radial_457_8428)" fill-opacity="0.7"/>
<rect x="36.1258" y="101.655" width="449.751" height="262.119" rx="49.5674" stroke="white" stroke-opacity="0.3" stroke-width="1.68025" style="mix-blend-mode:overlay"/>
</g>
<path d="M35.2856 257.078H485.593V314.207C485.593 342.046 463.025 364.615 435.185 364.615H85.6931C57.8538 364.615 35.2856 342.046 35.2856 314.207V257.078Z" fill="url(#paint2_linear_457_8428)"/>
<g filter="url(#filter1_b_457_8428)">
<ellipse cx="443" cy="323.5" rx="22" ry="22.5" fill="url(#paint3_radial_457_8428)" fill-opacity="0.5"/>
</g>
<g filter="url(#filter2_b_457_8428)">
<circle cx="415.5" cy="323.5" r="24.5" fill="url(#paint4_radial_457_8428)" fill-opacity="0.6"/>
</g>
<path d="M72.1709 141.618V125.151H75.7465L80.9922 135.596L86.1674 125.151H89.743V141.618H86.7319V130.256L82.1449 139.265H79.769L75.1819 130.256V141.618H72.1709ZM97.1955 141.618V135.76L91.6675 125.151H95.0784L98.7245 132.749L102.347 125.151H105.711L100.207 135.76V141.618H97.1955ZM107.64 141.618V125.151H114.25C115.959 125.151 117.261 125.551 118.155 126.351C119.065 127.135 119.519 128.147 119.519 129.385C119.519 130.42 119.237 131.252 118.672 131.879C118.124 132.491 117.449 132.906 116.649 133.126C117.59 133.314 118.367 133.784 118.978 134.537C119.59 135.274 119.896 136.137 119.896 137.125C119.896 138.426 119.425 139.501 118.484 140.347C117.543 141.194 116.21 141.618 114.485 141.618H107.64ZM110.651 132.067H113.803C114.65 132.067 115.301 131.871 115.756 131.479C116.21 131.087 116.438 130.53 116.438 129.809C116.438 129.119 116.21 128.578 115.756 128.186C115.316 127.778 114.65 127.574 113.756 127.574H110.651V132.067ZM110.651 139.171H114.015C114.909 139.171 115.599 138.967 116.085 138.56C116.587 138.136 116.838 137.548 116.838 136.795C116.838 136.027 116.579 135.423 116.061 134.984C115.544 134.545 114.846 134.325 113.968 134.325H110.651V139.171ZM121.284 141.618L127.306 125.151H130.693L136.715 141.618H133.516L132.198 137.807H125.777L124.436 141.618H121.284ZM126.6 135.455H131.375L128.976 128.609L126.6 135.455ZM138.836 141.618V125.151H141.847L149.586 136.748V125.151H152.597V141.618H149.586L141.847 130.044V141.618H138.836ZM155.79 141.618V125.151H158.801V131.808L164.893 125.151H168.61L162.541 131.691L168.775 141.618H165.081L160.377 133.996L158.801 135.713V141.618H155.79Z" fill="#3A481E"/>
<path d="M70.1139 233.392V222.222L67.7952 222.766V220.79L71.2027 219.278H72.7956V233.392H70.1139ZM75.1895 233.392V231.517C76.0498 230.804 76.8832 230.099 77.6897 229.4C78.5097 228.701 79.2355 228.008 79.8673 227.323C80.5125 226.637 81.0233 225.972 81.3997 225.327C81.7895 224.668 81.9844 224.029 81.9844 223.411C81.9844 222.833 81.8231 222.322 81.5005 221.879C81.1913 221.435 80.6738 221.213 79.948 221.213C79.2086 221.213 78.6508 221.455 78.2744 221.939C77.8981 222.423 77.7099 223.008 77.7099 223.693H75.2096C75.2365 222.658 75.465 221.798 75.8952 221.113C76.3253 220.414 76.8966 219.896 77.609 219.56C78.3215 219.211 79.1213 219.036 80.0084 219.036C81.4467 219.036 82.5624 219.432 83.3555 220.225C84.162 221.005 84.5653 222.02 84.5653 223.27C84.5653 224.05 84.3838 224.809 84.0209 225.548C83.6714 226.288 83.2076 227 82.6296 227.686C82.0516 228.371 81.4266 229.016 80.7545 229.621C80.0824 230.213 79.4304 230.764 78.7987 231.275H84.9081V233.392H75.1895ZM91.6685 233.634C90.741 233.634 89.9009 233.472 89.1481 233.15C88.3954 232.814 87.7905 232.303 87.3334 231.618C86.8764 230.932 86.6345 230.072 86.6076 229.037H89.1481C89.1616 229.722 89.3834 230.3 89.8135 230.771C90.2571 231.228 90.8754 231.456 91.6685 231.456C92.4212 231.456 92.9993 231.248 93.4025 230.831C93.8058 230.414 94.0074 229.89 94.0074 229.258C94.0074 228.519 93.7386 227.961 93.2009 227.585C92.6766 227.195 91.9978 227 91.1644 227H90.1159V224.883H91.1846C91.8701 224.883 92.4414 224.722 92.8984 224.399C93.3555 224.077 93.584 223.599 93.584 222.968C93.584 222.443 93.4092 222.027 93.0597 221.717C92.7237 221.395 92.2532 221.234 91.6483 221.234C90.9897 221.234 90.4722 221.428 90.0958 221.818C89.7328 222.208 89.5312 222.685 89.4909 223.25H86.9705C87.0243 221.946 87.4746 220.918 88.3214 220.165C89.1817 219.412 90.2907 219.036 91.6483 219.036C92.6162 219.036 93.4294 219.211 94.0881 219.56C94.7602 219.896 95.2642 220.346 95.6003 220.911C95.9498 221.476 96.1245 222.101 96.1245 222.786C96.1245 223.579 95.9027 224.251 95.4591 224.802C95.029 225.34 94.4913 225.703 93.8461 225.891C94.6392 226.053 95.2844 226.442 95.7817 227.061C96.2791 227.666 96.5278 228.432 96.5278 229.359C96.5278 230.139 96.3396 230.851 95.9632 231.497C95.5868 232.142 95.0357 232.659 94.3098 233.049C93.5974 233.439 92.717 233.634 91.6685 233.634ZM105.514 233.392V230.771H98.5583V228.714L105.172 219.278H108.095V228.533H109.95V230.771H108.095V233.392H105.514ZM101.321 228.533H105.676V222.121L101.321 228.533ZM121.845 233.634C120.81 233.634 119.916 233.452 119.163 233.089C118.424 232.726 117.839 232.229 117.409 231.597C116.992 230.952 116.75 230.226 116.683 229.42H119.203C119.324 229.998 119.62 230.482 120.09 230.871C120.561 231.248 121.146 231.436 121.845 231.436C122.597 231.436 123.209 231.16 123.679 230.609C124.163 230.058 124.405 229.373 124.405 228.553C124.405 227.706 124.163 227.034 123.679 226.536C123.209 226.039 122.611 225.79 121.885 225.79C121.28 225.79 120.756 225.938 120.312 226.234C119.869 226.53 119.553 226.899 119.365 227.343H116.885L118.094 219.278H125.918V221.536H120.03L119.385 224.802C119.68 224.48 120.084 224.218 120.595 224.016C121.105 223.801 121.677 223.693 122.308 223.693C123.317 223.693 124.157 223.922 124.829 224.379C125.501 224.823 126.012 225.414 126.361 226.153C126.711 226.879 126.885 227.672 126.885 228.533C126.885 229.514 126.67 230.388 126.24 231.154C125.823 231.92 125.232 232.525 124.466 232.968C123.713 233.412 122.839 233.634 121.845 233.634ZM134.59 233.634C133.528 233.634 132.634 233.439 131.908 233.049C131.182 232.659 130.598 232.135 130.154 231.476C129.711 230.818 129.388 230.085 129.186 229.279C128.998 228.472 128.904 227.645 128.904 226.799C128.904 225.226 129.126 223.861 129.569 222.705C130.013 221.536 130.652 220.635 131.485 220.004C132.318 219.358 133.326 219.036 134.509 219.036C135.477 219.036 136.297 219.231 136.969 219.621C137.655 219.997 138.186 220.494 138.562 221.113C138.939 221.731 139.16 222.396 139.228 223.109H136.828C136.707 222.49 136.445 222.013 136.042 221.677C135.638 221.341 135.121 221.173 134.489 221.173C133.589 221.173 132.863 221.59 132.312 222.423C131.76 223.243 131.465 224.5 131.424 226.194C131.747 225.643 132.231 225.186 132.876 224.823C133.521 224.46 134.241 224.278 135.034 224.278C135.813 224.278 136.546 224.466 137.231 224.843C137.917 225.219 138.468 225.75 138.885 226.436C139.315 227.121 139.53 227.928 139.53 228.855C139.53 229.702 139.322 230.488 138.905 231.214C138.502 231.94 137.924 232.525 137.171 232.968C136.432 233.412 135.571 233.634 134.59 233.634ZM134.449 231.416C135.202 231.416 135.82 231.187 136.304 230.73C136.801 230.26 137.05 229.668 137.05 228.956C137.05 228.203 136.801 227.598 136.304 227.141C135.807 226.684 135.175 226.456 134.409 226.456C133.911 226.456 133.461 226.57 133.058 226.799C132.668 227.014 132.359 227.309 132.13 227.686C131.902 228.049 131.787 228.459 131.787 228.916C131.787 229.642 132.036 230.24 132.533 230.71C133.044 231.181 133.683 231.416 134.449 231.416ZM142.617 233.392L147.94 221.476H140.984V219.278H150.601V221.113L145.298 233.392H142.617ZM157.384 233.634C156.416 233.634 155.542 233.466 154.763 233.13C153.983 232.78 153.358 232.29 152.888 231.658C152.431 231.026 152.202 230.293 152.202 229.46C152.202 228.6 152.424 227.847 152.867 227.202C153.325 226.557 153.923 226.093 154.662 225.811C154.017 225.528 153.506 225.125 153.13 224.601C152.753 224.063 152.565 223.465 152.565 222.806C152.565 222.134 152.746 221.516 153.109 220.951C153.472 220.373 154.01 219.91 154.722 219.56C155.448 219.211 156.336 219.036 157.384 219.036C158.432 219.036 159.313 219.211 160.025 219.56C160.738 219.91 161.275 220.373 161.638 220.951C162.001 221.516 162.183 222.134 162.183 222.806C162.183 223.451 161.988 224.05 161.598 224.601C161.222 225.138 160.718 225.542 160.086 225.811C160.839 226.093 161.437 226.557 161.88 227.202C162.324 227.847 162.546 228.6 162.546 229.46C162.546 230.293 162.317 231.026 161.86 231.658C161.403 232.29 160.778 232.78 159.985 233.13C159.205 233.466 158.338 233.634 157.384 233.634ZM157.384 225.044C158.083 225.044 158.634 224.863 159.037 224.5C159.441 224.137 159.642 223.673 159.642 223.109C159.642 222.49 159.441 222.006 159.037 221.657C158.648 221.307 158.096 221.133 157.384 221.133C156.658 221.133 156.1 221.307 155.71 221.657C155.321 222.006 155.126 222.49 155.126 223.109C155.126 223.687 155.321 224.157 155.71 224.52C156.114 224.87 156.672 225.044 157.384 225.044ZM157.384 231.476C158.244 231.476 158.896 231.268 159.34 230.851C159.783 230.421 160.005 229.883 160.005 229.238C160.005 228.526 159.77 227.968 159.299 227.565C158.842 227.161 158.204 226.96 157.384 226.96C156.564 226.96 155.912 227.161 155.428 227.565C154.958 227.968 154.722 228.526 154.722 229.238C154.722 229.883 154.944 230.421 155.388 230.851C155.845 231.268 156.51 231.476 157.384 231.476ZM174.708 233.634C173.727 233.634 172.9 233.446 172.228 233.069C171.556 232.679 171.031 232.175 170.655 231.557C170.279 230.939 170.057 230.273 169.99 229.561H172.389C172.497 230.179 172.752 230.656 173.155 230.992C173.572 231.328 174.096 231.497 174.728 231.497C175.629 231.497 176.354 231.087 176.906 230.267C177.457 229.433 177.752 228.17 177.793 226.476C177.47 227.027 176.979 227.484 176.321 227.847C175.676 228.21 174.963 228.391 174.184 228.391C173.404 228.391 172.671 228.203 171.986 227.827C171.3 227.45 170.742 226.92 170.312 226.234C169.882 225.548 169.667 224.742 169.667 223.814C169.667 222.968 169.875 222.181 170.292 221.455C170.709 220.729 171.287 220.145 172.026 219.701C172.765 219.258 173.632 219.036 174.627 219.036C175.689 219.036 176.583 219.231 177.309 219.621C178.035 220.01 178.613 220.535 179.043 221.193C179.486 221.852 179.802 222.584 179.99 223.391C180.192 224.198 180.293 225.024 180.293 225.871C180.293 227.444 180.071 228.815 179.628 229.984C179.197 231.14 178.559 232.041 177.712 232.686C176.879 233.318 175.877 233.634 174.708 233.634ZM174.788 226.214C175.286 226.214 175.736 226.106 176.139 225.891C176.543 225.663 176.859 225.367 177.087 225.004C177.316 224.628 177.43 224.211 177.43 223.754C177.43 223.028 177.174 222.43 176.664 221.959C176.166 221.489 175.534 221.254 174.768 221.254C174.016 221.254 173.39 221.489 172.893 221.959C172.396 222.416 172.147 223.001 172.147 223.714C172.147 224.466 172.396 225.071 172.893 225.528C173.39 225.985 174.022 226.214 174.788 226.214ZM184.023 233.392V222.222L181.704 222.766V220.79L185.112 219.278H186.705V233.392H184.023ZM195.228 233.634C193.924 233.634 192.809 233.331 191.881 232.726C190.954 232.108 190.235 231.255 189.724 230.166C189.226 229.064 188.978 227.787 188.978 226.335C188.978 224.896 189.226 223.626 189.724 222.524C190.235 221.422 190.954 220.568 191.881 219.963C192.809 219.345 193.924 219.036 195.228 219.036C196.532 219.036 197.648 219.345 198.575 219.963C199.503 220.568 200.215 221.422 200.713 222.524C201.223 223.626 201.479 224.896 201.479 226.335C201.479 227.787 201.223 229.064 200.713 230.166C200.215 231.255 199.503 232.108 198.575 232.726C197.648 233.331 196.532 233.634 195.228 233.634ZM195.228 231.315C196.29 231.315 197.157 230.871 197.829 229.984C198.501 229.097 198.837 227.881 198.837 226.335C198.837 224.789 198.501 223.572 197.829 222.685C197.157 221.798 196.29 221.355 195.228 221.355C194.153 221.355 193.279 221.798 192.607 222.685C191.948 223.572 191.619 224.789 191.619 226.335C191.619 227.881 191.948 229.097 192.607 229.984C193.279 230.871 194.153 231.315 195.228 231.315ZM205.289 233.392V222.222L202.97 222.766V220.79L206.378 219.278H207.97V233.392H205.289ZM217.044 233.392V222.222L214.725 222.766V220.79L218.133 219.278H219.726V233.392H217.044ZM223.995 233.392V222.222L221.676 222.766V220.79L225.083 219.278H226.676V233.392H223.995ZM229.07 233.392V231.517C229.931 230.804 230.764 230.099 231.57 229.4C232.39 228.701 233.116 228.008 233.748 227.323C234.393 226.637 234.904 225.972 235.28 225.327C235.67 224.668 235.865 224.029 235.865 223.411C235.865 222.833 235.704 222.322 235.381 221.879C235.072 221.435 234.555 221.213 233.829 221.213C233.089 221.213 232.532 221.455 232.155 221.939C231.779 222.423 231.591 223.008 231.591 223.693H229.09C229.117 222.658 229.346 221.798 229.776 221.113C230.206 220.414 230.777 219.896 231.49 219.56C232.202 219.211 233.002 219.036 233.889 219.036C235.327 219.036 236.443 219.432 237.236 220.225C238.043 221.005 238.446 222.02 238.446 223.27C238.446 224.05 238.265 224.809 237.902 225.548C237.552 226.288 237.088 227 236.51 227.686C235.932 228.371 235.307 229.016 234.635 229.621C233.963 230.213 233.311 230.764 232.679 231.275H238.789V233.392H229.07ZM242.464 233.392V222.222L240.146 222.766V220.79L243.553 219.278H245.146V233.392H242.464Z" fill="#262626"/>
<g filter="url(#filter3_d_457_8428)">
<path d="M68.5815 340.928V326.814H71.6463L76.1427 335.766L80.5785 326.814H83.6433V340.928H81.0624V331.189L77.1306 338.911H75.0942L71.1624 331.189V340.928H68.5815ZM91.8257 341.17C90.7907 341.17 89.8564 340.968 89.023 340.565C88.1896 340.148 87.5243 339.523 87.0269 338.69C86.543 337.856 86.301 336.801 86.301 335.524V326.814H88.8819V335.544C88.8819 336.646 89.144 337.466 89.6683 338.004C90.2059 338.542 90.9453 338.811 91.8862 338.811C92.8137 338.811 93.5463 338.542 94.084 338.004C94.6216 337.466 94.8905 336.646 94.8905 335.544V326.814H97.4713V335.524C97.4713 336.801 97.2159 337.856 96.7052 338.69C96.1944 339.523 95.5088 340.148 94.6485 340.565C93.8017 340.968 92.8607 341.17 91.8257 341.17ZM100.106 340.928V326.814H105.288C106.417 326.814 107.344 327.009 108.07 327.398C108.81 327.775 109.361 328.292 109.724 328.951C110.087 329.596 110.268 330.315 110.268 331.108C110.268 331.969 110.04 332.755 109.583 333.467C109.139 334.18 108.44 334.697 107.486 335.02L110.409 340.928H107.445L104.824 335.363H102.687V340.928H100.106ZM102.687 333.467H105.127C105.987 333.467 106.619 333.259 107.022 332.842C107.425 332.426 107.627 331.875 107.627 331.189C107.627 330.517 107.425 329.979 107.022 329.576C106.632 329.173 105.994 328.971 105.106 328.971H102.687V333.467ZM111.761 340.928L116.923 326.814H119.826L124.988 340.928H122.246L121.117 337.661H115.612L114.463 340.928H111.761ZM116.318 335.645H120.411L118.354 329.778L116.318 335.645ZM126.806 340.928V326.814H131.625C133.278 326.814 134.636 327.109 135.698 327.701C136.773 328.279 137.566 329.099 138.077 330.161C138.602 331.209 138.864 332.446 138.864 333.871C138.864 335.296 138.602 336.539 138.077 337.601C137.566 338.649 136.773 339.469 135.698 340.061C134.636 340.639 133.278 340.928 131.625 340.928H126.806ZM129.387 338.71H131.504C132.687 338.71 133.621 338.522 134.307 338.145C134.992 337.755 135.483 337.204 135.779 336.492C136.074 335.766 136.222 334.892 136.222 333.871C136.222 332.863 136.074 331.996 135.779 331.27C135.483 330.544 134.992 329.986 134.307 329.596C133.621 329.206 132.687 329.011 131.504 329.011H129.387V338.71ZM145.945 340.928V326.814H148.526V340.928H145.945ZM147.236 325.523C146.886 325.523 146.59 325.402 146.349 325.16C146.107 324.918 145.986 324.623 145.986 324.273C145.986 323.924 146.107 323.628 146.349 323.386C146.59 323.144 146.886 323.023 147.236 323.023C147.585 323.023 147.881 323.144 148.123 323.386C148.365 323.628 148.486 323.924 148.486 324.273C148.486 324.623 148.365 324.918 148.123 325.16C147.881 325.402 147.585 325.523 147.236 325.523ZM151.262 340.928V326.814H156.927C158.393 326.814 159.508 327.156 160.275 327.842C161.054 328.514 161.444 329.381 161.444 330.443C161.444 331.33 161.202 332.043 160.718 332.58C160.248 333.104 159.67 333.461 158.984 333.649C159.791 333.81 160.456 334.213 160.98 334.859C161.504 335.49 161.767 336.23 161.767 337.077C161.767 338.192 161.363 339.113 160.557 339.839C159.75 340.565 158.608 340.928 157.129 340.928H151.262ZM153.843 332.742H156.544C157.27 332.742 157.828 332.574 158.218 332.237C158.608 331.901 158.803 331.424 158.803 330.806C158.803 330.214 158.608 329.751 158.218 329.415C157.842 329.065 157.27 328.89 156.504 328.89H153.843V332.742ZM153.843 338.831H156.726C157.492 338.831 158.083 338.656 158.5 338.307C158.93 337.944 159.145 337.44 159.145 336.794C159.145 336.136 158.924 335.618 158.48 335.242C158.036 334.865 157.438 334.677 156.686 334.677H153.843V338.831ZM163.982 340.928V326.814H169.164C170.293 326.814 171.22 327.009 171.946 327.398C172.685 327.775 173.237 328.292 173.599 328.951C173.962 329.596 174.144 330.315 174.144 331.108C174.144 331.969 173.915 332.755 173.458 333.467C173.015 334.18 172.316 334.697 171.361 335.02L174.285 340.928H171.321L168.7 335.363H166.563V340.928H163.982ZM166.563 333.467H169.002C169.863 333.467 170.494 333.259 170.898 332.842C171.301 332.426 171.503 331.875 171.503 331.189C171.503 330.517 171.301 329.979 170.898 329.576C170.508 329.173 169.869 328.971 168.982 328.971H166.563V333.467ZM175.637 340.928L180.799 326.814H183.702L188.864 340.928H186.122L184.993 337.661H179.488L178.339 340.928H175.637ZM180.194 335.645H184.287L182.23 329.778L180.194 335.645ZM190.682 340.928V326.814H193.263V332.681H199.594V326.814H202.175V340.928H199.594V334.778H193.263V340.928H190.682ZM204.918 340.928V326.814H207.499V340.928H204.918ZM206.209 325.523C205.859 325.523 205.563 325.402 205.321 325.16C205.079 324.918 204.958 324.623 204.958 324.273C204.958 323.924 205.079 323.628 205.321 323.386C205.563 323.144 205.859 323.023 206.209 323.023C206.558 323.023 206.854 323.144 207.096 323.386C207.338 323.628 207.459 323.924 207.459 324.273C207.459 324.623 207.338 324.918 207.096 325.16C206.854 325.402 206.558 325.523 206.209 325.523ZM210.235 340.928V326.814H213.299L217.796 335.766L222.232 326.814H225.296V340.928H222.715V331.189L218.784 338.911H216.747L212.815 331.189V340.928H210.235ZM234.648 341.17C233.237 341.17 232 340.861 230.938 340.242C229.89 339.624 229.063 338.77 228.458 337.681C227.867 336.579 227.571 335.309 227.571 333.871C227.571 332.432 227.867 331.169 228.458 330.08C229.063 328.978 229.89 328.118 230.938 327.499C232 326.881 233.237 326.572 234.648 326.572C236.046 326.572 237.276 326.881 238.338 327.499C239.4 328.118 240.227 328.978 240.818 330.08C241.409 331.169 241.705 332.432 241.705 333.871C241.705 335.309 241.409 336.579 240.818 337.681C240.227 338.77 239.4 339.624 238.338 340.242C237.276 340.861 236.046 341.17 234.648 341.17ZM234.648 338.851C235.992 338.851 237.061 338.407 237.854 337.52C238.661 336.633 239.064 335.417 239.064 333.871C239.064 332.325 238.661 331.108 237.854 330.221C237.061 329.334 235.992 328.89 234.648 328.89C233.304 328.89 232.229 329.334 231.422 330.221C230.616 331.108 230.212 332.325 230.212 333.871C230.212 335.417 230.616 336.633 231.422 337.52C232.229 338.407 233.304 338.851 234.648 338.851ZM247.604 340.928L242.443 326.814H245.205L249.197 338.286L253.21 326.814H255.932L250.77 340.928H247.604Z" fill="white"/>
</g>
<g filter="url(#filter4_d_457_8428)">
<path d="M77.1327 305.545C75.9374 305.545 74.9147 305.268 74.0645 304.713C73.2143 304.146 72.5551 303.364 72.0869 302.366C71.631 301.355 71.403 300.185 71.403 298.854C71.403 297.536 71.631 296.371 72.0869 295.361C72.5551 294.35 73.2143 293.568 74.0645 293.013C74.9147 292.447 75.9374 292.163 77.1327 292.163C78.3279 292.163 79.3506 292.447 80.2008 293.013C81.051 293.568 81.7041 294.35 82.16 295.361C82.6282 296.371 82.8623 297.536 82.8623 298.854C82.8623 300.185 82.6282 301.355 82.16 302.366C81.7041 303.364 81.051 304.146 80.2008 304.713C79.3506 305.268 78.3279 305.545 77.1327 305.545ZM77.1327 303.419C78.1061 303.419 78.9009 303.013 79.5169 302.199C80.133 301.386 80.4411 300.271 80.4411 298.854C80.4411 297.437 80.133 296.322 79.5169 295.509C78.9009 294.695 78.1061 294.289 77.1327 294.289C76.1469 294.289 75.346 294.695 74.7299 295.509C74.1261 296.322 73.8243 297.437 73.8243 298.854C73.8243 300.271 74.1261 301.386 74.7299 302.199C75.346 303.013 76.1469 303.419 77.1327 303.419ZM89.5893 305.545C88.6405 305.545 87.8211 305.378 87.1311 305.046C86.4534 304.713 85.9174 304.257 85.5231 303.678C85.1411 303.087 84.9193 302.421 84.8577 301.682H87.1681C87.279 302.212 87.5501 302.655 87.9813 303.013C88.4126 303.358 88.9486 303.53 89.5893 303.53C90.2793 303.53 90.84 303.278 91.2713 302.772C91.7148 302.267 91.9366 301.639 91.9366 300.887C91.9366 300.111 91.7148 299.495 91.2713 299.039C90.84 298.583 90.2917 298.355 89.6263 298.355C89.0718 298.355 88.5913 298.491 88.1846 298.762C87.778 299.033 87.4885 299.372 87.3159 299.778H85.0426L86.1515 292.385H93.3228V294.455H87.9259L87.3344 297.449C87.6055 297.154 87.9752 296.913 88.4434 296.729C88.9116 296.531 89.4353 296.433 90.0144 296.433C90.9386 296.433 91.7087 296.642 92.3248 297.061C92.9409 297.468 93.4091 298.01 93.7295 298.688C94.0498 299.353 94.21 300.08 94.21 300.869C94.21 301.768 94.0129 302.569 93.6186 303.271C93.2366 303.974 92.6944 304.528 91.9921 304.935C91.3021 305.341 90.5011 305.545 89.5893 305.545ZM95.0204 307.375L99.6411 290.962H101.951L97.3122 307.375H95.0204ZM103.317 305.323V303.604C104.106 302.951 104.87 302.304 105.609 301.663C106.361 301.023 107.026 300.388 107.605 299.76C108.197 299.131 108.665 298.521 109.01 297.93C109.367 297.326 109.546 296.741 109.546 296.174C109.546 295.644 109.398 295.176 109.102 294.769C108.819 294.363 108.345 294.159 107.679 294.159C107.001 294.159 106.49 294.381 106.145 294.825C105.8 295.268 105.628 295.804 105.628 296.433H103.336C103.36 295.484 103.57 294.695 103.964 294.067C104.358 293.426 104.882 292.952 105.535 292.644C106.188 292.323 106.921 292.163 107.735 292.163C109.053 292.163 110.076 292.527 110.803 293.254C111.542 293.968 111.912 294.899 111.912 296.045C111.912 296.759 111.745 297.456 111.413 298.133C111.092 298.811 110.667 299.464 110.137 300.092C109.608 300.721 109.035 301.312 108.418 301.867C107.802 302.409 107.205 302.914 106.626 303.382H112.226V305.323H103.317ZM118.423 305.545C117.573 305.545 116.803 305.397 116.113 305.101C115.423 304.793 114.868 304.325 114.449 303.697C114.03 303.068 113.808 302.28 113.784 301.331H116.113C116.125 301.959 116.328 302.489 116.723 302.92C117.129 303.339 117.696 303.549 118.423 303.549C119.113 303.549 119.643 303.358 120.013 302.976C120.382 302.594 120.567 302.113 120.567 301.534C120.567 300.856 120.321 300.345 119.828 300C119.347 299.643 118.725 299.464 117.961 299.464H117V297.523H117.979C118.608 297.523 119.132 297.375 119.55 297.08C119.969 296.784 120.179 296.347 120.179 295.767C120.179 295.287 120.019 294.905 119.698 294.621C119.39 294.326 118.959 294.178 118.405 294.178C117.801 294.178 117.326 294.357 116.981 294.714C116.649 295.071 116.464 295.509 116.427 296.026H114.117C114.166 294.831 114.579 293.888 115.355 293.198C116.143 292.508 117.16 292.163 118.405 292.163C119.292 292.163 120.037 292.323 120.641 292.644C121.257 292.952 121.719 293.365 122.027 293.882C122.348 294.4 122.508 294.973 122.508 295.601C122.508 296.328 122.304 296.944 121.898 297.449C121.503 297.942 121.011 298.275 120.419 298.447C121.146 298.595 121.738 298.953 122.193 299.519C122.649 300.074 122.877 300.776 122.877 301.626C122.877 302.341 122.705 302.994 122.36 303.586C122.015 304.177 121.51 304.651 120.844 305.009C120.191 305.366 119.384 305.545 118.423 305.545Z" fill="white"/>
</g>
<g filter="url(#filter5_d_457_8428)">
<path d="M76.2074 286.921L74.0567 281.041H75.2077L76.8711 285.821L78.543 281.041H79.6771L77.5264 286.921H76.2074ZM79.2516 286.921L81.4023 281.041H82.6121L84.7628 286.921H83.6203L83.1498 285.56H80.8563L80.3774 286.921H79.2516ZM81.1503 284.72H82.8557L81.9988 282.275L81.1503 284.72ZM85.5204 286.921V281.041H86.5958V286.081H89.2001V286.921H85.5204ZM90.1476 286.921V281.041H91.223V286.921H90.1476ZM92.3628 286.921V281.041H94.3707C95.0596 281.041 95.6253 281.164 96.0678 281.41C96.5158 281.651 96.8463 281.993 97.0591 282.435C97.2776 282.872 97.3868 283.387 97.3868 283.981C97.3868 284.575 97.2776 285.093 97.0591 285.535C96.8463 285.972 96.5158 286.314 96.0678 286.56C95.6253 286.801 95.0596 286.921 94.3707 286.921H92.3628ZM93.4382 285.997H94.3203C94.8132 285.997 95.2024 285.919 95.4881 285.762C95.7737 285.6 95.9782 285.37 96.1014 285.073C96.2246 284.771 96.2862 284.407 96.2862 283.981C96.2862 283.561 96.2246 283.2 96.1014 282.897C95.9782 282.595 95.7737 282.362 95.4881 282.2C95.2024 282.037 94.8132 281.956 94.3203 281.956H93.4382V285.997ZM101.707 286.921V281.906H99.993V281.041H104.504V281.906H102.782V286.921H101.707ZM105.301 286.921V281.041H106.376V283.485H109.014V281.041H110.09V286.921H109.014V284.359H106.376V286.921H105.301ZM111.233 286.921V281.041H113.392C113.862 281.041 114.249 281.122 114.551 281.284C114.859 281.441 115.089 281.657 115.24 281.931C115.391 282.2 115.467 282.5 115.467 282.83C115.467 283.188 115.372 283.516 115.181 283.813C114.997 284.11 114.705 284.325 114.308 284.46L115.526 286.921H114.291L113.199 284.603H112.308V286.921H111.233ZM112.308 283.813H113.325C113.683 283.813 113.946 283.726 114.114 283.552C114.282 283.379 114.366 283.149 114.366 282.864C114.366 282.584 114.282 282.36 114.114 282.191C113.952 282.023 113.686 281.939 113.316 281.939H112.308V283.813ZM118.736 287.022C118.304 287.022 117.915 286.938 117.568 286.77C117.221 286.597 116.943 286.336 116.736 285.989C116.534 285.642 116.434 285.202 116.434 284.67V281.041H117.509V284.678C117.509 285.138 117.618 285.479 117.837 285.703C118.061 285.927 118.369 286.039 118.761 286.039C119.147 286.039 119.452 285.927 119.676 285.703C119.901 285.479 120.013 285.138 120.013 284.678V281.041H121.088V284.67C121.088 285.202 120.981 285.642 120.769 285.989C120.556 286.336 120.27 286.597 119.912 286.77C119.559 286.938 119.167 287.022 118.736 287.022Z" fill="white"/>
</g>
<defs>
<filter id="filter0_b_457_8428" x="15.1226" y="80.6522" width="491.757" height="304.125" filterUnits="userSpaceOnUse" color-interpolation-filters="sRGB">
<feFlood flood-opacity="0" result="BackgroundImageFix"/>
<feGaussianBlur in="BackgroundImageFix" stdDeviation="10.0815"/>
<feComposite in2="SourceAlpha" operator="in" result="effect1_backgroundBlur_457_8428"/>
<feBlend mode="normal" in="SourceGraphic" in2="effect1_backgroundBlur_457_8428" result="shape"/>
</filter>
<filter id="filter1_b_457_8428" x="400.837" y="280.837" width="84.326" height="85.326" filterUnits="userSpaceOnUse" color-interpolation-filters="sRGB">
<feFlood flood-opacity="0" result="BackgroundImageFix"/>
<feGaussianBlur in="BackgroundImageFix" stdDeviation="10.0815"/>
<feComposite in2="SourceAlpha" operator="in" result="effect1_backgroundBlur_457_8428"/>
<feBlend mode="normal" in="SourceGraphic" in2="effect1_backgroundBlur_457_8428" result="shape"/>
</filter>
<filter id="filter2_b_457_8428" x="370.837" y="278.837" width="89.326" height="89.326" filterUnits="userSpaceOnUse" color-interpolation-filters="sRGB">
<feFlood flood-opacity="0" result="BackgroundImageFix"/>
<feGaussianBlur in="BackgroundImageFix" stdDeviation="10.0815"/>
<feComposite in2="SourceAlpha" operator="in" result="effect1_backgroundBlur_457_8428"/>
<feBlend mode="normal" in="SourceGraphic" in2="effect1_backgroundBlur_457_8428" result="shape"/>
</filter>
<filter id="filter3_d_457_8428" x="68.5815" y="322.743" width="187.35" height="18.4267" filterUnits="userSpaceOnUse" color-interpolation-filters="sRGB">
<feFlood flood-opacity="0" result="BackgroundImageFix"/>
<feColorMatrix in="SourceAlpha" type="matrix" values="0 0 0 0 0 0 0 0 0 0 0 0 0 0 0 0 0 0 127 0" result="hardAlpha"/>
<feOffset dy="-0.28"/>
<feComposite in2="hardAlpha" operator="out"/>
<feColorMatrix type="matrix" values="0 0 0 0 0.227451 0 0 0 0 0.282353 0 0 0 0 0.117647 0 0 0 1 0"/>
<feBlend mode="normal" in2="BackgroundImageFix" result="effect1_dropShadow_457_8428"/>
<feBlend mode="normal" in="SourceGraphic" in2="effect1_dropShadow_457_8428" result="shape"/>
</filter>
<filter id="filter4_d_457_8428" x="64.6818" y="290.962" width="64.9166" height="29.8547" filterUnits="userSpaceOnUse" color-interpolation-filters="sRGB">
<feFlood flood-opacity="0" result="BackgroundImageFix"/>
<feColorMatrix in="SourceAlpha" type="matrix" values="0 0 0 0 0 0 0 0 0 0 0 0 0 0 0 0 0 0 127 0" result="hardAlpha"/>
<feOffset dy="6.721"/>
<feGaussianBlur stdDeviation="3.3605"/>
<feComposite in2="hardAlpha" operator="out"/>
<feColorMatrix type="matrix" values="0 0 0 0 0.160784 0 0 0 0 0.109804 0 0 0 0 0.392157 0 0 0 0.25 0"/>
<feBlend mode="normal" in2="BackgroundImageFix" result="effect1_dropShadow_457_8428"/>
<feBlend mode="normal" in="SourceGraphic" in2="effect1_dropShadow_457_8428" result="shape"/>
</filter>
<filter id="filter5_d_457_8428" x="67.3356" y="281.041" width="60.4733" height="19.4237" filterUnits="userSpaceOnUse" color-interpolation-filters="sRGB">
<feFlood flood-opacity="0" result="BackgroundImageFix"/>
<feColorMatrix in="SourceAlpha" type="matrix" values="0 0 0 0 0 0 0 0 0 0 0 0 0 0 0 0 0 0 127 0" result="hardAlpha"/>
<feOffset dy="6.721"/>
<feGaussianBlur stdDeviation="3.3605"/>
<feComposite in2="hardAlpha" operator="out"/>
<feColorMatrix type="matrix" values="0 0 0 0 0.160784 0 0 0 0 0.109804 0 0 0 0 0.392157 0 0 0 0.25 0"/>
<feBlend mode="normal" in2="BackgroundImageFix" result="effect1_dropShadow_457_8428"/>
<feBlend mode="normal" in="SourceGraphic" in2="effect1_dropShadow_457_8428" result="shape"/>
</filter>
<linearGradient id="paint0_linear_457_8428" x1="44.5005" y1="127" x2="802.501" y2="526.5" gradientUnits="userSpaceOnUse">
<stop offset="0.0249518" stop-color="#D87E00"/>
<stop offset="1" stop-color="#708C3B" stop-opacity="0.6"/>
</linearGradient>
<radialGradient id="paint1_radial_457_8428" cx="0" cy="0" r="1" gradientUnits="userSpaceOnUse" gradientTransform="translate(58.8091 115.937) rotate(28.8539) scale(489.196 837.146)">
<stop stop-color="white" stop-opacity="0.7"/>
<stop offset="1" stop-color="white" stop-opacity="0.1"/>
</radialGradient>
<linearGradient id="paint2_linear_457_8428" x1="-56.288" y1="235.235" x2="923.501" y2="443" gradientUnits="userSpaceOnUse">
<stop stop-color="#8BAE49"/>
<stop offset="0.270833" stop-color="#024F00" stop-opacity="0.52"/>
<stop offset="0.635417" stop-color="#8BAE49" stop-opacity="0.5"/>
</linearGradient>
<radialGradient id="paint3_radial_457_8428" cx="0" cy="0" r="1" gradientUnits="userSpaceOnUse" gradientTransform="translate(423.293 303.58) rotate(43.9589) scale(58.015 117.366)">
<stop stop-color="white" stop-opacity="0.7"/>
<stop offset="1" stop-color="white" stop-opacity="0.1"/>
</radialGradient>
<radialGradient id="paint4_radial_457_8428" cx="0" cy="0" r="1" gradientUnits="userSpaceOnUse" gradientTransform="translate(393.553 301.809) rotate(43.3159) scale(63.9199 129.174)">
<stop stop-color="white" stop-opacity="0.7"/>
<stop offset="1" stop-color="white" stop-opacity="0.1"/>
</radialGradient>
</defs>
</svg>

